<?xml version="1.0" encoding="utf-8" standalone="no"?>
<!DOCTYPE svg PUBLIC "-//W3C//DTD SVG 1.1//EN"
  "http://www.w3.org/Graphics/SVG/1.1/DTD/svg11.dtd">
<svg xmlns:xlink="http://www.w3.org/1999/xlink" width="770.146619pt" height="409.811761pt" viewBox="0 0 770.146619 409.811761" xmlns="http://www.w3.org/2000/svg" version="1.1">
 <metadata>
  <rdf:RDF xmlns:dc="http://purl.org/dc/elements/1.1/" xmlns:cc="http://creativecommons.org/ns#" xmlns:rdf="http://www.w3.org/1999/02/22-rdf-syntax-ns#">
   <cc:Work>
    <dc:type rdf:resource="http://purl.org/dc/dcmitype/StillImage"/>
    <dc:date>2026-06-25T14:24:13.233549</dc:date>
    <dc:format>image/svg+xml</dc:format>
    <dc:creator>
     <cc:Agent>
      <dc:title>Matplotlib v3.8.4, https://matplotlib.org/</dc:title>
     </cc:Agent>
    </dc:creator>
   </cc:Work>
  </rdf:RDF>
 </metadata>
 <defs>
  <style type="text/css">*{stroke-linejoin: round; stroke-linecap: butt}</style>
 </defs>
 <g id="figure_1">
  <g id="patch_1">
   <path d="M 0 409.811761
L 770.146619 409.811761
L 770.146619 0
L 0 0
z
" style="fill: #f6f9fc"/>
  </g>
  <g id="axes_1">
   <g id="patch_2">
    <path d="M 51.800938 365.363636
L 751.494119 365.363636
L 751.494119 7.2
L 51.800938 7.2
z
" style="fill: #ffffff"/>
   </g>
   <g id="PolyCollection_1">
    <defs>
     <path id="m0997163b8f" d="M 51.800938 -376.971702
L 51.800938 -85.650239
L 59.166129 -75.530875
L 66.53132 -73.360419
L 73.896512 -70.146969
L 81.261703 -67.898673
L 88.626894 -64.976202
L 95.992086 -63.920353
L 103.357277 -62.980926
L 110.722469 -60.235971
L 118.08766 -60.568146
L 125.452851 -59.53945
L 132.818043 -59.486975
L 140.183234 -58.43999
L 147.548426 -58.511668
L 154.913617 -57.933095
L 162.278808 -57.600725
L 169.644 -57.524667
L 177.009191 -55.973057
L 184.374382 -55.904731
L 191.739574 -56.089734
L 199.104765 -55.775362
L 206.469957 -55.065865
L 213.835148 -55.075509
L 221.200339 -54.127682
L 228.565531 -54.910497
L 235.930722 -53.947625
L 243.295914 -53.913666
L 250.661105 -54.184607
L 258.026296 -53.630484
L 265.391488 -53.939105
L 272.756679 -53.419564
L 280.121871 -53.318656
L 287.487062 -52.908309
L 294.852253 -53.4617
L 302.217445 -52.697584
L 309.582636 -52.356097
L 316.947827 -52.466954
L 324.313019 -53.021525
L 331.67821 -52.148327
L 339.043402 -51.513557
L 346.408593 -51.780408
L 353.773784 -51.925241
L 361.138976 -51.577089
L 368.504167 -51.580775
L 375.869359 -51.533395
L 383.23455 -50.943394
L 390.599741 -51.438306
L 397.964933 -51.735173
L 405.330124 -51.217975
L 412.695315 -51.353163
L 420.060507 -51.065611
L 427.425698 -50.966313
L 434.79089 -50.847406
L 442.156081 -50.592508
L 449.521272 -50.728825
L 456.886464 -50.82231
L 464.251655 -50.819431
L 471.616847 -50.721312
L 478.982038 -50.744285
L 486.347229 -50.415981
L 493.712421 -50.258522
L 501.077612 -50.418754
L 508.442804 -50.327852
L 515.807995 -50.252227
L 523.173186 -50.174691
L 530.538378 -50.123844
L 537.903569 -50.119185
L 545.26876 -50.196351
L 552.633952 -50.168744
L 559.999143 -50.073474
L 567.364335 -49.475704
L 574.729526 -50.014174
L 582.094717 -49.586843
L 589.459909 -49.775218
L 596.8251 -49.856395
L 604.190292 -49.613043
L 611.555483 -49.726528
L 618.920674 -49.587459
L 626.285866 -49.606713
L 633.651057 -49.503017
L 641.016249 -49.594576
L 648.38144 -49.698258
L 655.746631 -49.556301
L 663.111823 -49.547611
L 670.477014 -49.566331
L 677.842205 -49.198158
L 685.207397 -49.415277
L 692.572588 -49.324855
L 699.93778 -49.210468
L 707.302971 -49.317358
L 714.668162 -49.381106
L 722.033354 -49.241899
L 729.398545 -49.039377
L 736.763737 -48.988009
L 744.128928 -48.937829
L 751.494119 -49.21536
L 751.494119 -63.949944
L 751.494119 -63.949944
L 744.128928 -61.976249
L 736.763737 -64.031763
L 729.398545 -64.030973
L 722.033354 -63.440335
L 714.668162 -64.085821
L 707.302971 -64.118195
L 699.93778 -64.685641
L 692.572588 -64.671263
L 685.207397 -64.148399
L 677.842205 -64.980701
L 670.477014 -64.446515
L 663.111823 -65.324182
L 655.746631 -65.017483
L 648.38144 -65.449732
L 641.016249 -64.693528
L 633.651057 -65.184359
L 626.285866 -66.789809
L 618.920674 -65.366259
L 611.555483 -66.345793
L 604.190292 -67.862285
L 596.8251 -66.587484
L 589.459909 -67.440722
L 582.094717 -67.489211
L 574.729526 -67.805089
L 567.364335 -67.612353
L 559.999143 -69.012159
L 552.633952 -68.774911
L 545.26876 -69.333197
L 537.903569 -68.959542
L 530.538378 -70.300707
L 523.173186 -69.411026
L 515.807995 -70.041436
L 508.442804 -69.750039
L 501.077612 -70.576061
L 493.712421 -71.741741
L 486.347229 -70.961368
L 478.982038 -71.498846
L 471.616847 -71.941859
L 464.251655 -72.797743
L 456.886464 -72.709655
L 449.521272 -73.054377
L 442.156081 -74.874594
L 434.79089 -73.033904
L 427.425698 -74.423368
L 420.060507 -75.270008
L 412.695315 -77.845567
L 405.330124 -75.308595
L 397.964933 -78.509926
L 390.599741 -77.411023
L 383.23455 -76.954246
L 375.869359 -78.692046
L 368.504167 -78.272618
L 361.138976 -77.337044
L 353.773784 -80.225309
L 346.408593 -80.658913
L 339.043402 -81.190432
L 331.67821 -82.517022
L 324.313019 -82.751448
L 316.947827 -84.280517
L 309.582636 -83.517219
L 302.217445 -85.765957
L 294.852253 -85.320165
L 287.487062 -86.76361
L 280.121871 -88.785434
L 272.756679 -86.681949
L 265.391488 -89.79455
L 258.026296 -92.972013
L 250.661105 -93.09677
L 243.295914 -93.326012
L 235.930722 -98.648721
L 228.565531 -98.495042
L 221.200339 -98.137519
L 213.835148 -100.818084
L 206.469957 -103.330518
L 199.104765 -104.558045
L 191.739574 -109.206113
L 184.374382 -111.495639
L 177.009191 -116.291957
L 169.644 -114.830005
L 162.278808 -115.413875
L 154.913617 -123.149309
L 147.548426 -128.66992
L 140.183234 -136.169507
L 132.818043 -134.910572
L 125.452851 -139.901165
L 118.08766 -148.139551
L 110.722469 -157.392117
L 103.357277 -169.0851
L 95.992086 -178.186374
L 88.626894 -188.415183
L 81.261703 -207.628541
L 73.896512 -221.685276
L 66.53132 -263.073574
L 59.166129 -324.310966
L 51.800938 -376.971702
z
"/>
    </defs>
    <g clip-path="url(#p1d629d93c0)">
     <use xlink:href="#m0997163b8f" x="0" y="409.811761" style="fill: #d62828; fill-opacity: 0.17"/>
    </g>
   </g>
   <g id="matplotlib.axis_1">
    <g id="xtick_1">
     <g id="line2d_1">
      <path d="M 162.278808 365.363636
L 162.278808 7.2
" clip-path="url(#p1d629d93c0)" style="fill: none; stroke: #dfe7f0; stroke-width: 0.9; stroke-linecap: square"/>
     </g>
     <g id="line2d_2">
      <defs>
       <path id="m2b8576517e" d="M 0 0
L 0 3.5
" style="stroke: #12213a; stroke-width: 0.8"/>
      </defs>
      <g>
       <use xlink:href="#m2b8576517e" x="162.278808" y="365.363636" style="fill: #12213a; stroke: #12213a; stroke-width: 0.8"/>
      </g>
     </g>
     <g id="text_1">
      <!-- 20 -->
      <g style="fill: #12213a" transform="translate(154.643808 381.481761) scale(0.12 -0.12)">
       <defs>
        <path id="DejaVuSans-32" d="M 1228 531
L 3431 531
L 3431 0
L 469 0
L 469 531
Q 828 903 1448 1529
Q 2069 2156 2228 2338
Q 2531 2678 2651 2914
Q 2772 3150 2772 3378
Q 2772 3750 2511 3984
Q 2250 4219 1831 4219
Q 1534 4219 1204 4116
Q 875 4013 500 3803
L 500 4441
Q 881 4594 1212 4672
Q 1544 4750 1819 4750
Q 2544 4750 2975 4387
Q 3406 4025 3406 3419
Q 3406 3131 3298 2873
Q 3191 2616 2906 2266
Q 2828 2175 2409 1742
Q 1991 1309 1228 531
z
" transform="scale(0.015625)"/>
        <path id="DejaVuSans-30" d="M 2034 4250
Q 1547 4250 1301 3770
Q 1056 3291 1056 2328
Q 1056 1369 1301 889
Q 1547 409 2034 409
Q 2525 409 2770 889
Q 3016 1369 3016 2328
Q 3016 3291 2770 3770
Q 2525 4250 2034 4250
z
M 2034 4750
Q 2819 4750 3233 4129
Q 3647 3509 3647 2328
Q 3647 1150 3233 529
Q 2819 -91 2034 -91
Q 1250 -91 836 529
Q 422 1150 422 2328
Q 422 3509 836 4129
Q 1250 4750 2034 4750
z
" transform="scale(0.015625)"/>
       </defs>
       <use xlink:href="#DejaVuSans-32"/>
       <use xlink:href="#DejaVuSans-30" x="63.623047"/>
      </g>
     </g>
    </g>
    <g id="xtick_2">
     <g id="line2d_3">
      <path d="M 309.582636 365.363636
L 309.582636 7.2
" clip-path="url(#p1d629d93c0)" style="fill: none; stroke: #dfe7f0; stroke-width: 0.9; stroke-linecap: square"/>
     </g>
     <g id="line2d_4">
      <g>
       <use xlink:href="#m2b8576517e" x="309.582636" y="365.363636" style="fill: #12213a; stroke: #12213a; stroke-width: 0.8"/>
      </g>
     </g>
     <g id="text_2">
      <!-- 40 -->
      <g style="fill: #12213a" transform="translate(301.947636 381.481761) scale(0.12 -0.12)">
       <defs>
        <path id="DejaVuSans-34" d="M 2419 4116
L 825 1625
L 2419 1625
L 2419 4116
z
M 2253 4666
L 3047 4666
L 3047 1625
L 3713 1625
L 3713 1100
L 3047 1100
L 3047 0
L 2419 0
L 2419 1100
L 313 1100
L 313 1709
L 2253 4666
z
" transform="scale(0.015625)"/>
       </defs>
       <use xlink:href="#DejaVuSans-34"/>
       <use xlink:href="#DejaVuSans-30" x="63.623047"/>
      </g>
     </g>
    </g>
    <g id="xtick_3">
     <g id="line2d_5">
      <path d="M 456.886464 365.363636
L 456.886464 7.2
" clip-path="url(#p1d629d93c0)" style="fill: none; stroke: #dfe7f0; stroke-width: 0.9; stroke-linecap: square"/>
     </g>
     <g id="line2d_6">
      <g>
       <use xlink:href="#m2b8576517e" x="456.886464" y="365.363636" style="fill: #12213a; stroke: #12213a; stroke-width: 0.8"/>
      </g>
     </g>
     <g id="text_3">
      <!-- 60 -->
      <g style="fill: #12213a" transform="translate(449.251464 381.481761) scale(0.12 -0.12)">
       <defs>
        <path id="DejaVuSans-36" d="M 2113 2584
Q 1688 2584 1439 2293
Q 1191 2003 1191 1497
Q 1191 994 1439 701
Q 1688 409 2113 409
Q 2538 409 2786 701
Q 3034 994 3034 1497
Q 3034 2003 2786 2293
Q 2538 2584 2113 2584
z
M 3366 4563
L 3366 3988
Q 3128 4100 2886 4159
Q 2644 4219 2406 4219
Q 1781 4219 1451 3797
Q 1122 3375 1075 2522
Q 1259 2794 1537 2939
Q 1816 3084 2150 3084
Q 2853 3084 3261 2657
Q 3669 2231 3669 1497
Q 3669 778 3244 343
Q 2819 -91 2113 -91
Q 1303 -91 875 529
Q 447 1150 447 2328
Q 447 3434 972 4092
Q 1497 4750 2381 4750
Q 2619 4750 2861 4703
Q 3103 4656 3366 4563
z
" transform="scale(0.015625)"/>
       </defs>
       <use xlink:href="#DejaVuSans-36"/>
       <use xlink:href="#DejaVuSans-30" x="63.623047"/>
      </g>
     </g>
    </g>
    <g id="xtick_4">
     <g id="line2d_7">
      <path d="M 604.190292 365.363636
L 604.190292 7.2
" clip-path="url(#p1d629d93c0)" style="fill: none; stroke: #dfe7f0; stroke-width: 0.9; stroke-linecap: square"/>
     </g>
     <g id="line2d_8">
      <g>
       <use xlink:href="#m2b8576517e" x="604.190292" y="365.363636" style="fill: #12213a; stroke: #12213a; stroke-width: 0.8"/>
      </g>
     </g>
     <g id="text_4">
      <!-- 80 -->
      <g style="fill: #12213a" transform="translate(596.555292 381.481761) scale(0.12 -0.12)">
       <defs>
        <path id="DejaVuSans-38" d="M 2034 2216
Q 1584 2216 1326 1975
Q 1069 1734 1069 1313
Q 1069 891 1326 650
Q 1584 409 2034 409
Q 2484 409 2743 651
Q 3003 894 3003 1313
Q 3003 1734 2745 1975
Q 2488 2216 2034 2216
z
M 1403 2484
Q 997 2584 770 2862
Q 544 3141 544 3541
Q 544 4100 942 4425
Q 1341 4750 2034 4750
Q 2731 4750 3128 4425
Q 3525 4100 3525 3541
Q 3525 3141 3298 2862
Q 3072 2584 2669 2484
Q 3125 2378 3379 2068
Q 3634 1759 3634 1313
Q 3634 634 3220 271
Q 2806 -91 2034 -91
Q 1263 -91 848 271
Q 434 634 434 1313
Q 434 1759 690 2068
Q 947 2378 1403 2484
z
M 1172 3481
Q 1172 3119 1398 2916
Q 1625 2713 2034 2713
Q 2441 2713 2670 2916
Q 2900 3119 2900 3481
Q 2900 3844 2670 4047
Q 2441 4250 2034 4250
Q 1625 4250 1398 4047
Q 1172 3844 1172 3481
z
" transform="scale(0.015625)"/>
       </defs>
       <use xlink:href="#DejaVuSans-38"/>
       <use xlink:href="#DejaVuSans-30" x="63.623047"/>
      </g>
     </g>
    </g>
    <g id="xtick_5">
     <g id="line2d_9">
      <path d="M 751.494119 365.363636
L 751.494119 7.2
" clip-path="url(#p1d629d93c0)" style="fill: none; stroke: #dfe7f0; stroke-width: 0.9; stroke-linecap: square"/>
     </g>
     <g id="line2d_10">
      <g>
       <use xlink:href="#m2b8576517e" x="751.494119" y="365.363636" style="fill: #12213a; stroke: #12213a; stroke-width: 0.8"/>
      </g>
     </g>
     <g id="text_5">
      <!-- 100 -->
      <g style="fill: #12213a" transform="translate(740.041619 381.481761) scale(0.12 -0.12)">
       <defs>
        <path id="DejaVuSans-31" d="M 794 531
L 1825 531
L 1825 4091
L 703 3866
L 703 4441
L 1819 4666
L 2450 4666
L 2450 531
L 3481 531
L 3481 0
L 794 0
L 794 531
z
" transform="scale(0.015625)"/>
       </defs>
       <use xlink:href="#DejaVuSans-31"/>
       <use xlink:href="#DejaVuSans-30" x="63.623047"/>
       <use xlink:href="#DejaVuSans-30" x="127.246094"/>
      </g>
     </g>
    </g>
    <g id="text_6">
     <!-- Tokens per category -->
     <g style="fill: #12213a" transform="translate(316.027997 399.375043) scale(0.15 -0.15)">
      <defs>
       <path id="DejaVuSans-Bold-54" d="M 31 4666
L 4331 4666
L 4331 3756
L 2784 3756
L 2784 0
L 1581 0
L 1581 3756
L 31 3756
L 31 4666
z
" transform="scale(0.015625)"/>
       <path id="DejaVuSans-Bold-6f" d="M 2203 2784
Q 1831 2784 1636 2517
Q 1441 2250 1441 1747
Q 1441 1244 1636 976
Q 1831 709 2203 709
Q 2569 709 2762 976
Q 2956 1244 2956 1747
Q 2956 2250 2762 2517
Q 2569 2784 2203 2784
z
M 2203 3584
Q 3106 3584 3614 3096
Q 4122 2609 4122 1747
Q 4122 884 3614 396
Q 3106 -91 2203 -91
Q 1297 -91 786 396
Q 275 884 275 1747
Q 275 2609 786 3096
Q 1297 3584 2203 3584
z
" transform="scale(0.015625)"/>
       <path id="DejaVuSans-Bold-6b" d="M 538 4863
L 1656 4863
L 1656 2216
L 2944 3500
L 4244 3500
L 2534 1894
L 4378 0
L 3022 0
L 1656 1459
L 1656 0
L 538 0
L 538 4863
z
" transform="scale(0.015625)"/>
       <path id="DejaVuSans-Bold-65" d="M 4031 1759
L 4031 1441
L 1416 1441
Q 1456 1047 1700 850
Q 1944 653 2381 653
Q 2734 653 3104 758
Q 3475 863 3866 1075
L 3866 213
Q 3469 63 3072 -14
Q 2675 -91 2278 -91
Q 1328 -91 801 392
Q 275 875 275 1747
Q 275 2603 792 3093
Q 1309 3584 2216 3584
Q 3041 3584 3536 3087
Q 4031 2591 4031 1759
z
M 2881 2131
Q 2881 2450 2695 2645
Q 2509 2841 2209 2841
Q 1884 2841 1681 2658
Q 1478 2475 1428 2131
L 2881 2131
z
" transform="scale(0.015625)"/>
       <path id="DejaVuSans-Bold-6e" d="M 4056 2131
L 4056 0
L 2931 0
L 2931 347
L 2931 1631
Q 2931 2084 2911 2256
Q 2891 2428 2841 2509
Q 2775 2619 2662 2680
Q 2550 2741 2406 2741
Q 2056 2741 1856 2470
Q 1656 2200 1656 1722
L 1656 0
L 538 0
L 538 3500
L 1656 3500
L 1656 2988
Q 1909 3294 2193 3439
Q 2478 3584 2822 3584
Q 3428 3584 3742 3212
Q 4056 2841 4056 2131
z
" transform="scale(0.015625)"/>
       <path id="DejaVuSans-Bold-73" d="M 3272 3391
L 3272 2541
Q 2913 2691 2578 2766
Q 2244 2841 1947 2841
Q 1628 2841 1473 2761
Q 1319 2681 1319 2516
Q 1319 2381 1436 2309
Q 1553 2238 1856 2203
L 2053 2175
Q 2913 2066 3209 1816
Q 3506 1566 3506 1031
Q 3506 472 3093 190
Q 2681 -91 1863 -91
Q 1516 -91 1145 -36
Q 775 19 384 128
L 384 978
Q 719 816 1070 734
Q 1422 653 1784 653
Q 2113 653 2278 743
Q 2444 834 2444 1013
Q 2444 1163 2330 1236
Q 2216 1309 1875 1350
L 1678 1375
Q 931 1469 631 1722
Q 331 1975 331 2491
Q 331 3047 712 3315
Q 1094 3584 1881 3584
Q 2191 3584 2531 3537
Q 2872 3491 3272 3391
z
" transform="scale(0.015625)"/>
       <path id="DejaVuSans-Bold-20" transform="scale(0.015625)"/>
       <path id="DejaVuSans-Bold-70" d="M 1656 506
L 1656 -1331
L 538 -1331
L 538 3500
L 1656 3500
L 1656 2988
Q 1888 3294 2169 3439
Q 2450 3584 2816 3584
Q 3463 3584 3878 3070
Q 4294 2556 4294 1747
Q 4294 938 3878 423
Q 3463 -91 2816 -91
Q 2450 -91 2169 54
Q 1888 200 1656 506
z
M 2400 2772
Q 2041 2772 1848 2508
Q 1656 2244 1656 1747
Q 1656 1250 1848 986
Q 2041 722 2400 722
Q 2759 722 2948 984
Q 3138 1247 3138 1747
Q 3138 2247 2948 2509
Q 2759 2772 2400 2772
z
" transform="scale(0.015625)"/>
       <path id="DejaVuSans-Bold-72" d="M 3138 2547
Q 2991 2616 2845 2648
Q 2700 2681 2553 2681
Q 2122 2681 1889 2404
Q 1656 2128 1656 1613
L 1656 0
L 538 0
L 538 3500
L 1656 3500
L 1656 2925
Q 1872 3269 2151 3426
Q 2431 3584 2822 3584
Q 2878 3584 2943 3579
Q 3009 3575 3134 3559
L 3138 2547
z
" transform="scale(0.015625)"/>
       <path id="DejaVuSans-Bold-63" d="M 3366 3391
L 3366 2478
Q 3138 2634 2908 2709
Q 2678 2784 2431 2784
Q 1963 2784 1702 2511
Q 1441 2238 1441 1747
Q 1441 1256 1702 982
Q 1963 709 2431 709
Q 2694 709 2930 787
Q 3166 866 3366 1019
L 3366 103
Q 3103 6 2833 -42
Q 2563 -91 2291 -91
Q 1344 -91 809 395
Q 275 881 275 1747
Q 275 2613 809 3098
Q 1344 3584 2291 3584
Q 2566 3584 2833 3536
Q 3100 3488 3366 3391
z
" transform="scale(0.015625)"/>
       <path id="DejaVuSans-Bold-61" d="M 2106 1575
Q 1756 1575 1579 1456
Q 1403 1338 1403 1106
Q 1403 894 1545 773
Q 1688 653 1941 653
Q 2256 653 2472 879
Q 2688 1106 2688 1447
L 2688 1575
L 2106 1575
z
M 3816 1997
L 3816 0
L 2688 0
L 2688 519
Q 2463 200 2181 54
Q 1900 -91 1497 -91
Q 953 -91 614 226
Q 275 544 275 1050
Q 275 1666 698 1953
Q 1122 2241 2028 2241
L 2688 2241
L 2688 2328
Q 2688 2594 2478 2717
Q 2269 2841 1825 2841
Q 1466 2841 1156 2769
Q 847 2697 581 2553
L 581 3406
Q 941 3494 1303 3539
Q 1666 3584 2028 3584
Q 2975 3584 3395 3211
Q 3816 2838 3816 1997
z
" transform="scale(0.015625)"/>
       <path id="DejaVuSans-Bold-74" d="M 1759 4494
L 1759 3500
L 2913 3500
L 2913 2700
L 1759 2700
L 1759 1216
Q 1759 972 1856 886
Q 1953 800 2241 800
L 2816 800
L 2816 0
L 1856 0
Q 1194 0 917 276
Q 641 553 641 1216
L 641 2700
L 84 2700
L 84 3500
L 641 3500
L 641 4494
L 1759 4494
z
" transform="scale(0.015625)"/>
       <path id="DejaVuSans-Bold-67" d="M 2919 594
Q 2688 288 2409 144
Q 2131 0 1766 0
Q 1125 0 706 504
Q 288 1009 288 1791
Q 288 2575 706 3076
Q 1125 3578 1766 3578
Q 2131 3578 2409 3434
Q 2688 3291 2919 2981
L 2919 3500
L 4044 3500
L 4044 353
Q 4044 -491 3511 -936
Q 2978 -1381 1966 -1381
Q 1638 -1381 1331 -1331
Q 1025 -1281 716 -1178
L 716 -306
Q 1009 -475 1290 -558
Q 1572 -641 1856 -641
Q 2406 -641 2662 -400
Q 2919 -159 2919 353
L 2919 594
z
M 2181 2772
Q 1834 2772 1640 2515
Q 1447 2259 1447 1791
Q 1447 1309 1634 1061
Q 1822 813 2181 813
Q 2531 813 2725 1069
Q 2919 1325 2919 1791
Q 2919 2259 2725 2515
Q 2531 2772 2181 2772
z
" transform="scale(0.015625)"/>
       <path id="DejaVuSans-Bold-79" d="M 78 3500
L 1197 3500
L 2138 1125
L 2938 3500
L 4056 3500
L 2584 -331
Q 2363 -916 2067 -1148
Q 1772 -1381 1288 -1381
L 641 -1381
L 641 -647
L 991 -647
Q 1275 -647 1404 -556
Q 1534 -466 1606 -231
L 1638 -134
L 78 3500
z
" transform="scale(0.015625)"/>
      </defs>
      <use xlink:href="#DejaVuSans-Bold-54"/>
      <use xlink:href="#DejaVuSans-Bold-6f" x="54.962891"/>
      <use xlink:href="#DejaVuSans-Bold-6b" x="123.664062"/>
      <use xlink:href="#DejaVuSans-Bold-65" x="187.542969"/>
      <use xlink:href="#DejaVuSans-Bold-6e" x="255.365234"/>
      <use xlink:href="#DejaVuSans-Bold-73" x="326.556641"/>
      <use xlink:href="#DejaVuSans-Bold-20" x="386.078125"/>
      <use xlink:href="#DejaVuSans-Bold-70" x="420.892578"/>
      <use xlink:href="#DejaVuSans-Bold-65" x="492.474609"/>
      <use xlink:href="#DejaVuSans-Bold-72" x="560.296875"/>
      <use xlink:href="#DejaVuSans-Bold-20" x="609.613281"/>
      <use xlink:href="#DejaVuSans-Bold-63" x="644.427734"/>
      <use xlink:href="#DejaVuSans-Bold-61" x="703.705078"/>
      <use xlink:href="#DejaVuSans-Bold-74" x="771.185547"/>
      <use xlink:href="#DejaVuSans-Bold-65" x="818.988281"/>
      <use xlink:href="#DejaVuSans-Bold-67" x="886.810547"/>
      <use xlink:href="#DejaVuSans-Bold-6f" x="958.392578"/>
      <use xlink:href="#DejaVuSans-Bold-72" x="1027.09375"/>
      <use xlink:href="#DejaVuSans-Bold-79" x="1076.410156"/>
     </g>
    </g>
   </g>
   <g id="matplotlib.axis_2">
    <g id="ytick_1">
     <g id="line2d_11">
      <path d="M 51.800938 365.363636
L 751.494119 365.363636
" clip-path="url(#p1d629d93c0)" style="fill: none; stroke: #dfe7f0; stroke-width: 0.9; stroke-linecap: square"/>
     </g>
     <g id="line2d_12">
      <defs>
       <path id="m65bb762e24" d="M 0 0
L -3.5 0
" style="stroke: #12213a; stroke-width: 0.8"/>
      </defs>
      <g>
       <use xlink:href="#m65bb762e24" x="51.800938" y="365.363636" style="fill: #12213a; stroke: #12213a; stroke-width: 0.8"/>
      </g>
     </g>
     <g id="text_7">
      <!-- 0.0 -->
      <g style="fill: #12213a" transform="translate(25.717188 369.922699) scale(0.12 -0.12)">
       <defs>
        <path id="DejaVuSans-2e" d="M 684 794
L 1344 794
L 1344 0
L 684 0
L 684 794
z
" transform="scale(0.015625)"/>
       </defs>
       <use xlink:href="#DejaVuSans-30"/>
       <use xlink:href="#DejaVuSans-2e" x="63.623047"/>
       <use xlink:href="#DejaVuSans-30" x="95.410156"/>
      </g>
     </g>
    </g>
    <g id="ytick_2">
     <g id="line2d_13">
      <path d="M 51.800938 307.595308
L 751.494119 307.595308
" clip-path="url(#p1d629d93c0)" style="fill: none; stroke: #dfe7f0; stroke-width: 0.9; stroke-linecap: square"/>
     </g>
     <g id="line2d_14">
      <g>
       <use xlink:href="#m65bb762e24" x="51.800938" y="307.595308" style="fill: #12213a; stroke: #12213a; stroke-width: 0.8"/>
      </g>
     </g>
     <g id="text_8">
      <!-- 0.1 -->
      <g style="fill: #12213a" transform="translate(25.717188 312.15437) scale(0.12 -0.12)">
       <use xlink:href="#DejaVuSans-30"/>
       <use xlink:href="#DejaVuSans-2e" x="63.623047"/>
       <use xlink:href="#DejaVuSans-31" x="95.410156"/>
      </g>
     </g>
    </g>
    <g id="ytick_3">
     <g id="line2d_15">
      <path d="M 51.800938 249.826979
L 751.494119 249.826979
" clip-path="url(#p1d629d93c0)" style="fill: none; stroke: #dfe7f0; stroke-width: 0.9; stroke-linecap: square"/>
     </g>
     <g id="line2d_16">
      <g>
       <use xlink:href="#m65bb762e24" x="51.800938" y="249.826979" style="fill: #12213a; stroke: #12213a; stroke-width: 0.8"/>
      </g>
     </g>
     <g id="text_9">
      <!-- 0.2 -->
      <g style="fill: #12213a" transform="translate(25.717188 254.386042) scale(0.12 -0.12)">
       <use xlink:href="#DejaVuSans-30"/>
       <use xlink:href="#DejaVuSans-2e" x="63.623047"/>
       <use xlink:href="#DejaVuSans-32" x="95.410156"/>
      </g>
     </g>
    </g>
    <g id="ytick_4">
     <g id="line2d_17">
      <path d="M 51.800938 192.058651
L 751.494119 192.058651
" clip-path="url(#p1d629d93c0)" style="fill: none; stroke: #dfe7f0; stroke-width: 0.9; stroke-linecap: square"/>
     </g>
     <g id="line2d_18">
      <g>
       <use xlink:href="#m65bb762e24" x="51.800938" y="192.058651" style="fill: #12213a; stroke: #12213a; stroke-width: 0.8"/>
      </g>
     </g>
     <g id="text_10">
      <!-- 0.3 -->
      <g style="fill: #12213a" transform="translate(25.717188 196.617714) scale(0.12 -0.12)">
       <defs>
        <path id="DejaVuSans-33" d="M 2597 2516
Q 3050 2419 3304 2112
Q 3559 1806 3559 1356
Q 3559 666 3084 287
Q 2609 -91 1734 -91
Q 1441 -91 1130 -33
Q 819 25 488 141
L 488 750
Q 750 597 1062 519
Q 1375 441 1716 441
Q 2309 441 2620 675
Q 2931 909 2931 1356
Q 2931 1769 2642 2001
Q 2353 2234 1838 2234
L 1294 2234
L 1294 2753
L 1863 2753
Q 2328 2753 2575 2939
Q 2822 3125 2822 3475
Q 2822 3834 2567 4026
Q 2313 4219 1838 4219
Q 1578 4219 1281 4162
Q 984 4106 628 3988
L 628 4550
Q 988 4650 1302 4700
Q 1616 4750 1894 4750
Q 2613 4750 3031 4423
Q 3450 4097 3450 3541
Q 3450 3153 3228 2886
Q 3006 2619 2597 2516
z
" transform="scale(0.015625)"/>
       </defs>
       <use xlink:href="#DejaVuSans-30"/>
       <use xlink:href="#DejaVuSans-2e" x="63.623047"/>
       <use xlink:href="#DejaVuSans-33" x="95.410156"/>
      </g>
     </g>
    </g>
    <g id="ytick_5">
     <g id="line2d_19">
      <path d="M 51.800938 134.290323
L 751.494119 134.290323
" clip-path="url(#p1d629d93c0)" style="fill: none; stroke: #dfe7f0; stroke-width: 0.9; stroke-linecap: square"/>
     </g>
     <g id="line2d_20">
      <g>
       <use xlink:href="#m65bb762e24" x="51.800938" y="134.290323" style="fill: #12213a; stroke: #12213a; stroke-width: 0.8"/>
      </g>
     </g>
     <g id="text_11">
      <!-- 0.4 -->
      <g style="fill: #12213a" transform="translate(25.717188 138.849385) scale(0.12 -0.12)">
       <use xlink:href="#DejaVuSans-30"/>
       <use xlink:href="#DejaVuSans-2e" x="63.623047"/>
       <use xlink:href="#DejaVuSans-34" x="95.410156"/>
      </g>
     </g>
    </g>
    <g id="ytick_6">
     <g id="line2d_21">
      <path d="M 51.800938 76.521994
L 751.494119 76.521994
" clip-path="url(#p1d629d93c0)" style="fill: none; stroke: #dfe7f0; stroke-width: 0.9; stroke-linecap: square"/>
     </g>
     <g id="line2d_22">
      <g>
       <use xlink:href="#m65bb762e24" x="51.800938" y="76.521994" style="fill: #12213a; stroke: #12213a; stroke-width: 0.8"/>
      </g>
     </g>
     <g id="text_12">
      <!-- 0.5 -->
      <g style="fill: #12213a" transform="translate(25.717188 81.081057) scale(0.12 -0.12)">
       <defs>
        <path id="DejaVuSans-35" d="M 691 4666
L 3169 4666
L 3169 4134
L 1269 4134
L 1269 2991
Q 1406 3038 1543 3061
Q 1681 3084 1819 3084
Q 2600 3084 3056 2656
Q 3513 2228 3513 1497
Q 3513 744 3044 326
Q 2575 -91 1722 -91
Q 1428 -91 1123 -41
Q 819 9 494 109
L 494 744
Q 775 591 1075 516
Q 1375 441 1709 441
Q 2250 441 2565 725
Q 2881 1009 2881 1497
Q 2881 1984 2565 2268
Q 2250 2553 1709 2553
Q 1456 2553 1204 2497
Q 953 2441 691 2322
L 691 4666
z
" transform="scale(0.015625)"/>
       </defs>
       <use xlink:href="#DejaVuSans-30"/>
       <use xlink:href="#DejaVuSans-2e" x="63.623047"/>
       <use xlink:href="#DejaVuSans-35" x="95.410156"/>
      </g>
     </g>
    </g>
    <g id="ytick_7">
     <g id="line2d_23">
      <path d="M 51.800938 18.753666
L 751.494119 18.753666
" clip-path="url(#p1d629d93c0)" style="fill: none; stroke: #dfe7f0; stroke-width: 0.9; stroke-linecap: square"/>
     </g>
     <g id="line2d_24">
      <g>
       <use xlink:href="#m65bb762e24" x="51.800938" y="18.753666" style="fill: #12213a; stroke: #12213a; stroke-width: 0.8"/>
      </g>
     </g>
     <g id="text_13">
      <!-- 0.6 -->
      <g style="fill: #12213a" transform="translate(25.717188 23.312728) scale(0.12 -0.12)">
       <use xlink:href="#DejaVuSans-30"/>
       <use xlink:href="#DejaVuSans-2e" x="63.623047"/>
       <use xlink:href="#DejaVuSans-36" x="95.410156"/>
      </g>
     </g>
    </g>
    <g id="text_14">
     <!-- JSD estimate under complete overlap -->
     <g style="fill: #12213a" transform="translate(18.597656 344.170881) rotate(-90) scale(0.15 -0.15)">
      <defs>
       <path id="DejaVuSans-Bold-4a" d="M 588 4666
L 1791 4666
L 1791 453
Q 1791 -419 1317 -850
Q 844 -1281 -116 -1281
L -359 -1281
L -359 -372
L -172 -372
Q 203 -372 395 -162
Q 588 47 588 453
L 588 4666
z
" transform="scale(0.015625)"/>
       <path id="DejaVuSans-Bold-53" d="M 3834 4519
L 3834 3531
Q 3450 3703 3084 3790
Q 2719 3878 2394 3878
Q 1963 3878 1756 3759
Q 1550 3641 1550 3391
Q 1550 3203 1689 3098
Q 1828 2994 2194 2919
L 2706 2816
Q 3484 2659 3812 2340
Q 4141 2022 4141 1434
Q 4141 663 3683 286
Q 3225 -91 2284 -91
Q 1841 -91 1394 -6
Q 947 78 500 244
L 500 1259
Q 947 1022 1364 901
Q 1781 781 2169 781
Q 2563 781 2772 912
Q 2981 1044 2981 1288
Q 2981 1506 2839 1625
Q 2697 1744 2272 1838
L 1806 1941
Q 1106 2091 782 2419
Q 459 2747 459 3303
Q 459 4000 909 4375
Q 1359 4750 2203 4750
Q 2588 4750 2994 4692
Q 3400 4634 3834 4519
z
" transform="scale(0.015625)"/>
       <path id="DejaVuSans-Bold-44" d="M 1791 3756
L 1791 909
L 2222 909
Q 2959 909 3348 1275
Q 3738 1641 3738 2338
Q 3738 3031 3350 3393
Q 2963 3756 2222 3756
L 1791 3756
z
M 588 4666
L 1856 4666
Q 2919 4666 3439 4514
Q 3959 4363 4331 4000
Q 4659 3684 4818 3271
Q 4978 2859 4978 2338
Q 4978 1809 4818 1395
Q 4659 981 4331 666
Q 3956 303 3431 151
Q 2906 0 1856 0
L 588 0
L 588 4666
z
" transform="scale(0.015625)"/>
       <path id="DejaVuSans-Bold-69" d="M 538 3500
L 1656 3500
L 1656 0
L 538 0
L 538 3500
z
M 538 4863
L 1656 4863
L 1656 3950
L 538 3950
L 538 4863
z
" transform="scale(0.015625)"/>
       <path id="DejaVuSans-Bold-6d" d="M 3781 2919
Q 3994 3244 4286 3414
Q 4578 3584 4928 3584
Q 5531 3584 5847 3212
Q 6163 2841 6163 2131
L 6163 0
L 5038 0
L 5038 1825
Q 5041 1866 5042 1909
Q 5044 1953 5044 2034
Q 5044 2406 4934 2573
Q 4825 2741 4581 2741
Q 4263 2741 4089 2478
Q 3916 2216 3909 1719
L 3909 0
L 2784 0
L 2784 1825
Q 2784 2406 2684 2573
Q 2584 2741 2328 2741
Q 2006 2741 1831 2477
Q 1656 2213 1656 1722
L 1656 0
L 531 0
L 531 3500
L 1656 3500
L 1656 2988
Q 1863 3284 2130 3434
Q 2397 3584 2719 3584
Q 3081 3584 3359 3409
Q 3638 3234 3781 2919
z
" transform="scale(0.015625)"/>
       <path id="DejaVuSans-Bold-75" d="M 500 1363
L 500 3500
L 1625 3500
L 1625 3150
Q 1625 2866 1622 2436
Q 1619 2006 1619 1863
Q 1619 1441 1641 1255
Q 1663 1069 1716 984
Q 1784 875 1895 815
Q 2006 756 2150 756
Q 2500 756 2700 1025
Q 2900 1294 2900 1772
L 2900 3500
L 4019 3500
L 4019 0
L 2900 0
L 2900 506
Q 2647 200 2364 54
Q 2081 -91 1741 -91
Q 1134 -91 817 281
Q 500 653 500 1363
z
" transform="scale(0.015625)"/>
       <path id="DejaVuSans-Bold-64" d="M 2919 2988
L 2919 4863
L 4044 4863
L 4044 0
L 2919 0
L 2919 506
Q 2688 197 2409 53
Q 2131 -91 1766 -91
Q 1119 -91 703 423
Q 288 938 288 1747
Q 288 2556 703 3070
Q 1119 3584 1766 3584
Q 2128 3584 2408 3439
Q 2688 3294 2919 2988
z
M 2181 722
Q 2541 722 2730 984
Q 2919 1247 2919 1747
Q 2919 2247 2730 2509
Q 2541 2772 2181 2772
Q 1825 2772 1636 2509
Q 1447 2247 1447 1747
Q 1447 1247 1636 984
Q 1825 722 2181 722
z
" transform="scale(0.015625)"/>
       <path id="DejaVuSans-Bold-6c" d="M 538 4863
L 1656 4863
L 1656 0
L 538 0
L 538 4863
z
" transform="scale(0.015625)"/>
       <path id="DejaVuSans-Bold-76" d="M 97 3500
L 1216 3500
L 2088 1081
L 2956 3500
L 4078 3500
L 2700 0
L 1472 0
L 97 3500
z
" transform="scale(0.015625)"/>
      </defs>
      <use xlink:href="#DejaVuSans-Bold-4a"/>
      <use xlink:href="#DejaVuSans-Bold-53" x="37.207031"/>
      <use xlink:href="#DejaVuSans-Bold-44" x="109.228516"/>
      <use xlink:href="#DejaVuSans-Bold-20" x="192.236328"/>
      <use xlink:href="#DejaVuSans-Bold-65" x="227.050781"/>
      <use xlink:href="#DejaVuSans-Bold-73" x="294.873047"/>
      <use xlink:href="#DejaVuSans-Bold-74" x="354.394531"/>
      <use xlink:href="#DejaVuSans-Bold-69" x="402.197266"/>
      <use xlink:href="#DejaVuSans-Bold-6d" x="436.474609"/>
      <use xlink:href="#DejaVuSans-Bold-61" x="540.673828"/>
      <use xlink:href="#DejaVuSans-Bold-74" x="608.154297"/>
      <use xlink:href="#DejaVuSans-Bold-65" x="655.957031"/>
      <use xlink:href="#DejaVuSans-Bold-20" x="723.779297"/>
      <use xlink:href="#DejaVuSans-Bold-75" x="758.59375"/>
      <use xlink:href="#DejaVuSans-Bold-6e" x="829.785156"/>
      <use xlink:href="#DejaVuSans-Bold-64" x="900.976562"/>
      <use xlink:href="#DejaVuSans-Bold-65" x="972.558594"/>
      <use xlink:href="#DejaVuSans-Bold-72" x="1040.380859"/>
      <use xlink:href="#DejaVuSans-Bold-20" x="1089.697266"/>
      <use xlink:href="#DejaVuSans-Bold-63" x="1124.511719"/>
      <use xlink:href="#DejaVuSans-Bold-6f" x="1183.789062"/>
      <use xlink:href="#DejaVuSans-Bold-6d" x="1252.490234"/>
      <use xlink:href="#DejaVuSans-Bold-70" x="1356.689453"/>
      <use xlink:href="#DejaVuSans-Bold-6c" x="1428.271484"/>
      <use xlink:href="#DejaVuSans-Bold-65" x="1462.548828"/>
      <use xlink:href="#DejaVuSans-Bold-74" x="1530.371094"/>
      <use xlink:href="#DejaVuSans-Bold-65" x="1578.173828"/>
      <use xlink:href="#DejaVuSans-Bold-20" x="1645.996094"/>
      <use xlink:href="#DejaVuSans-Bold-6f" x="1680.810547"/>
      <use xlink:href="#DejaVuSans-Bold-76" x="1749.511719"/>
      <use xlink:href="#DejaVuSans-Bold-65" x="1814.697266"/>
      <use xlink:href="#DejaVuSans-Bold-72" x="1882.519531"/>
      <use xlink:href="#DejaVuSans-Bold-6c" x="1931.835938"/>
      <use xlink:href="#DejaVuSans-Bold-61" x="1966.113281"/>
      <use xlink:href="#DejaVuSans-Bold-70" x="2033.59375"/>
     </g>
    </g>
   </g>
   <g id="line2d_25">
    <path d="M 51.800938 215.997677
L 59.166129 248.746702
L 66.53132 267.676122
L 73.896512 281.978457
L 81.261703 291.821042
L 88.626894 298.216375
L 95.992086 303.055501
L 103.357277 307.219175
L 110.722469 312.912749
L 118.08766 317.250037
L 125.452851 317.971357
L 132.818043 321.016696
L 140.183234 322.750993
L 147.548426 325.945865
L 154.913617 327.387574
L 162.278808 330.367525
L 169.644 331.202141
L 177.009191 331.066529
L 184.374382 332.976879
L 191.739574 334.183983
L 199.104765 335.291068
L 206.469957 336.205979
L 213.835148 337.123113
L 221.200339 337.94591
L 228.565531 338.969626
L 235.930722 339.807012
L 243.295914 340.563828
L 250.661105 340.565045
L 258.026296 341.478335
L 265.391488 342.492827
L 272.756679 342.977751
L 280.121871 342.805873
L 287.487062 344.071091
L 294.852253 344.131293
L 302.217445 344.510997
L 309.582636 344.974269
L 316.947827 345.386219
L 324.313019 345.440304
L 331.67821 345.695938
L 339.043402 346.344793
L 346.408593 346.851856
L 353.773784 346.991415
L 361.138976 347.722367
L 368.504167 347.607873
L 375.869359 347.51496
L 383.23455 348.444032
L 390.599741 348.50699
L 397.964933 348.370653
L 405.330124 348.863796
L 412.695315 348.681362
L 420.060507 349.25187
L 427.425698 349.598235
L 434.79089 350.196981
L 442.156081 349.774865
L 449.521272 350.340527
L 456.886464 350.174011
L 464.251655 350.321398
L 471.616847 350.608739
L 478.982038 350.569452
L 486.347229 351.659034
L 493.712421 350.892843
L 501.077612 351.200079
L 508.442804 351.597092
L 515.807995 351.602031
L 523.173186 352.283403
L 530.538378 351.50155
L 537.903569 352.207887
L 545.26876 351.913365
L 552.633952 352.568249
L 559.999143 352.592752
L 567.364335 352.88355
L 574.729526 352.713959
L 582.094717 352.949408
L 589.459909 352.994564
L 596.8251 353.205749
L 604.190292 352.984549
L 611.555483 353.219181
L 618.920674 353.726075
L 626.285866 353.383379
L 633.651057 353.891562
L 641.016249 354.103323
L 648.38144 353.906594
L 655.746631 354.132307
L 663.111823 354.119363
L 670.477014 353.986944
L 677.842205 354.203374
L 685.207397 354.275317
L 692.572588 354.394233
L 699.93778 354.378216
L 707.302971 354.227148
L 714.668162 354.673233
L 722.033354 354.716093
L 729.398545 354.825987
L 736.763737 354.905693
L 744.128928 355.28675
L 751.494119 354.826234
" clip-path="url(#p1d629d93c0)" style="fill: none; stroke: #d62828; stroke-width: 3; stroke-linecap: square"/>
   </g>
   <g id="line2d_26">
    <path d="M 199.104765 365.363636
L 199.104765 7.2
" clip-path="url(#p1d629d93c0)" style="fill: none; stroke-dasharray: 6.66,2.88; stroke-dashoffset: 0; stroke: #526173; stroke-width: 1.8"/>
   </g>
   <g id="patch_3">
    <path d="M 51.800938 365.363636
L 51.800938 7.2
" style="fill: none; stroke: #000000; stroke-width: 0.8; stroke-linejoin: miter; stroke-linecap: square"/>
   </g>
   <g id="patch_4">
    <path d="M 51.800938 365.363636
L 751.494119 365.363636
" style="fill: none; stroke: #000000; stroke-width: 0.8; stroke-linejoin: miter; stroke-linecap: square"/>
   </g>
   <g id="PathCollection_1">
    <defs>
     <path id="m773f2bb396" d="M 0 4.1833
C 1.109424 4.1833 2.173559 3.742521 2.95804 2.95804
C 3.742521 2.173559 4.1833 1.109424 4.1833 0
C 4.1833 -1.109424 3.742521 -2.173559 2.95804 -2.95804
C 2.173559 -3.742521 1.109424 -4.1833 0 -4.1833
C -1.109424 -4.1833 -2.173559 -3.742521 -2.95804 -2.95804
C -3.742521 -2.173559 -4.1833 -1.109424 -4.1833 0
C -4.1833 1.109424 -3.742521 2.173559 -2.95804 2.95804
C -2.173559 3.742521 -1.109424 4.1833 0 4.1833
z
" style="stroke: #d62828"/>
    </defs>
    <g clip-path="url(#p1d629d93c0)">
     <use xlink:href="#m773f2bb396" x="199.104765" y="335.291068" style="fill: #d62828; stroke: #d62828"/>
    </g>
   </g>
   <g id="text_15">
    <g id="patch_5">
     <path d="M 204.996918 318.522153
L 344.394887 318.522153
Q 347.844887 318.522153 347.844887 315.072153
L 347.844887 291.064825
Q 347.844887 287.614825 344.394887 287.614825
L 204.996918 287.614825
Q 201.546918 287.614825 201.546918 291.064825
L 201.546918 315.072153
Q 201.546918 318.522153 204.996918 318.522153
z
" style="fill: #ffffff; stroke: #c9d6e2; stroke-linejoin: miter"/>
    </g>
    <!-- n=25 mean=0.05 -->
    <g style="fill: #12213a" transform="translate(204.996918 299.803028) scale(0.115 -0.115)">
     <defs>
      <path id="DejaVuSans-6e" d="M 3513 2113
L 3513 0
L 2938 0
L 2938 2094
Q 2938 2591 2744 2837
Q 2550 3084 2163 3084
Q 1697 3084 1428 2787
Q 1159 2491 1159 1978
L 1159 0
L 581 0
L 581 3500
L 1159 3500
L 1159 2956
Q 1366 3272 1645 3428
Q 1925 3584 2291 3584
Q 2894 3584 3203 3211
Q 3513 2838 3513 2113
z
" transform="scale(0.015625)"/>
      <path id="DejaVuSans-3d" d="M 678 2906
L 4684 2906
L 4684 2381
L 678 2381
L 678 2906
z
M 678 1631
L 4684 1631
L 4684 1100
L 678 1100
L 678 1631
z
" transform="scale(0.015625)"/>
      <path id="DejaVuSans-20" transform="scale(0.015625)"/>
      <path id="DejaVuSans-6d" d="M 3328 2828
Q 3544 3216 3844 3400
Q 4144 3584 4550 3584
Q 5097 3584 5394 3201
Q 5691 2819 5691 2113
L 5691 0
L 5113 0
L 5113 2094
Q 5113 2597 4934 2840
Q 4756 3084 4391 3084
Q 3944 3084 3684 2787
Q 3425 2491 3425 1978
L 3425 0
L 2847 0
L 2847 2094
Q 2847 2600 2669 2842
Q 2491 3084 2119 3084
Q 1678 3084 1418 2786
Q 1159 2488 1159 1978
L 1159 0
L 581 0
L 581 3500
L 1159 3500
L 1159 2956
Q 1356 3278 1631 3431
Q 1906 3584 2284 3584
Q 2666 3584 2933 3390
Q 3200 3197 3328 2828
z
" transform="scale(0.015625)"/>
      <path id="DejaVuSans-65" d="M 3597 1894
L 3597 1613
L 953 1613
Q 991 1019 1311 708
Q 1631 397 2203 397
Q 2534 397 2845 478
Q 3156 559 3463 722
L 3463 178
Q 3153 47 2828 -22
Q 2503 -91 2169 -91
Q 1331 -91 842 396
Q 353 884 353 1716
Q 353 2575 817 3079
Q 1281 3584 2069 3584
Q 2775 3584 3186 3129
Q 3597 2675 3597 1894
z
M 3022 2063
Q 3016 2534 2758 2815
Q 2500 3097 2075 3097
Q 1594 3097 1305 2825
Q 1016 2553 972 2059
L 3022 2063
z
" transform="scale(0.015625)"/>
      <path id="DejaVuSans-61" d="M 2194 1759
Q 1497 1759 1228 1600
Q 959 1441 959 1056
Q 959 750 1161 570
Q 1363 391 1709 391
Q 2188 391 2477 730
Q 2766 1069 2766 1631
L 2766 1759
L 2194 1759
z
M 3341 1997
L 3341 0
L 2766 0
L 2766 531
Q 2569 213 2275 61
Q 1981 -91 1556 -91
Q 1019 -91 701 211
Q 384 513 384 1019
Q 384 1609 779 1909
Q 1175 2209 1959 2209
L 2766 2209
L 2766 2266
Q 2766 2663 2505 2880
Q 2244 3097 1772 3097
Q 1472 3097 1187 3025
Q 903 2953 641 2809
L 641 3341
Q 956 3463 1253 3523
Q 1550 3584 1831 3584
Q 2591 3584 2966 3190
Q 3341 2797 3341 1997
z
" transform="scale(0.015625)"/>
     </defs>
     <use xlink:href="#DejaVuSans-6e"/>
     <use xlink:href="#DejaVuSans-3d" x="63.378906"/>
     <use xlink:href="#DejaVuSans-32" x="147.167969"/>
     <use xlink:href="#DejaVuSans-35" x="210.791016"/>
     <use xlink:href="#DejaVuSans-20" x="274.414062"/>
     <use xlink:href="#DejaVuSans-6d" x="306.201172"/>
     <use xlink:href="#DejaVuSans-65" x="403.613281"/>
     <use xlink:href="#DejaVuSans-61" x="465.136719"/>
     <use xlink:href="#DejaVuSans-6e" x="526.416016"/>
     <use xlink:href="#DejaVuSans-3d" x="589.794922"/>
     <use xlink:href="#DejaVuSans-30" x="673.583984"/>
     <use xlink:href="#DejaVuSans-2e" x="737.207031"/>
     <use xlink:href="#DejaVuSans-30" x="768.994141"/>
     <use xlink:href="#DejaVuSans-35" x="832.617188"/>
    </g>
    <!-- 95% sim int [0.02, 0.10] -->
    <g style="fill: #12213a" transform="translate(204.996918 312.680513) scale(0.115 -0.115)">
     <defs>
      <path id="DejaVuSans-39" d="M 703 97
L 703 672
Q 941 559 1184 500
Q 1428 441 1663 441
Q 2288 441 2617 861
Q 2947 1281 2994 2138
Q 2813 1869 2534 1725
Q 2256 1581 1919 1581
Q 1219 1581 811 2004
Q 403 2428 403 3163
Q 403 3881 828 4315
Q 1253 4750 1959 4750
Q 2769 4750 3195 4129
Q 3622 3509 3622 2328
Q 3622 1225 3098 567
Q 2575 -91 1691 -91
Q 1453 -91 1209 -44
Q 966 3 703 97
z
M 1959 2075
Q 2384 2075 2632 2365
Q 2881 2656 2881 3163
Q 2881 3666 2632 3958
Q 2384 4250 1959 4250
Q 1534 4250 1286 3958
Q 1038 3666 1038 3163
Q 1038 2656 1286 2365
Q 1534 2075 1959 2075
z
" transform="scale(0.015625)"/>
      <path id="DejaVuSans-25" d="M 4653 2053
Q 4381 2053 4226 1822
Q 4072 1591 4072 1178
Q 4072 772 4226 539
Q 4381 306 4653 306
Q 4919 306 5073 539
Q 5228 772 5228 1178
Q 5228 1588 5073 1820
Q 4919 2053 4653 2053
z
M 4653 2450
Q 5147 2450 5437 2106
Q 5728 1763 5728 1178
Q 5728 594 5436 251
Q 5144 -91 4653 -91
Q 4153 -91 3862 251
Q 3572 594 3572 1178
Q 3572 1766 3864 2108
Q 4156 2450 4653 2450
z
M 1428 4353
Q 1159 4353 1004 4120
Q 850 3888 850 3481
Q 850 3069 1003 2837
Q 1156 2606 1428 2606
Q 1700 2606 1854 2837
Q 2009 3069 2009 3481
Q 2009 3884 1853 4118
Q 1697 4353 1428 4353
z
M 4250 4750
L 4750 4750
L 1831 -91
L 1331 -91
L 4250 4750
z
M 1428 4750
Q 1922 4750 2215 4408
Q 2509 4066 2509 3481
Q 2509 2891 2217 2550
Q 1925 2209 1428 2209
Q 931 2209 642 2551
Q 353 2894 353 3481
Q 353 4063 643 4406
Q 934 4750 1428 4750
z
" transform="scale(0.015625)"/>
      <path id="DejaVuSans-73" d="M 2834 3397
L 2834 2853
Q 2591 2978 2328 3040
Q 2066 3103 1784 3103
Q 1356 3103 1142 2972
Q 928 2841 928 2578
Q 928 2378 1081 2264
Q 1234 2150 1697 2047
L 1894 2003
Q 2506 1872 2764 1633
Q 3022 1394 3022 966
Q 3022 478 2636 193
Q 2250 -91 1575 -91
Q 1294 -91 989 -36
Q 684 19 347 128
L 347 722
Q 666 556 975 473
Q 1284 391 1588 391
Q 1994 391 2212 530
Q 2431 669 2431 922
Q 2431 1156 2273 1281
Q 2116 1406 1581 1522
L 1381 1569
Q 847 1681 609 1914
Q 372 2147 372 2553
Q 372 3047 722 3315
Q 1072 3584 1716 3584
Q 2034 3584 2315 3537
Q 2597 3491 2834 3397
z
" transform="scale(0.015625)"/>
      <path id="DejaVuSans-69" d="M 603 3500
L 1178 3500
L 1178 0
L 603 0
L 603 3500
z
M 603 4863
L 1178 4863
L 1178 4134
L 603 4134
L 603 4863
z
" transform="scale(0.015625)"/>
      <path id="DejaVuSans-74" d="M 1172 4494
L 1172 3500
L 2356 3500
L 2356 3053
L 1172 3053
L 1172 1153
Q 1172 725 1289 603
Q 1406 481 1766 481
L 2356 481
L 2356 0
L 1766 0
Q 1100 0 847 248
Q 594 497 594 1153
L 594 3053
L 172 3053
L 172 3500
L 594 3500
L 594 4494
L 1172 4494
z
" transform="scale(0.015625)"/>
      <path id="DejaVuSans-5b" d="M 550 4863
L 1875 4863
L 1875 4416
L 1125 4416
L 1125 -397
L 1875 -397
L 1875 -844
L 550 -844
L 550 4863
z
" transform="scale(0.015625)"/>
      <path id="DejaVuSans-2c" d="M 750 794
L 1409 794
L 1409 256
L 897 -744
L 494 -744
L 750 256
L 750 794
z
" transform="scale(0.015625)"/>
      <path id="DejaVuSans-5d" d="M 1947 4863
L 1947 -844
L 622 -844
L 622 -397
L 1369 -397
L 1369 4416
L 622 4416
L 622 4863
L 1947 4863
z
" transform="scale(0.015625)"/>
     </defs>
     <use xlink:href="#DejaVuSans-39"/>
     <use xlink:href="#DejaVuSans-35" x="63.623047"/>
     <use xlink:href="#DejaVuSans-25" x="127.246094"/>
     <use xlink:href="#DejaVuSans-20" x="222.265625"/>
     <use xlink:href="#DejaVuSans-73" x="254.052734"/>
     <use xlink:href="#DejaVuSans-69" x="306.152344"/>
     <use xlink:href="#DejaVuSans-6d" x="333.935547"/>
     <use xlink:href="#DejaVuSans-20" x="431.347656"/>
     <use xlink:href="#DejaVuSans-69" x="463.134766"/>
     <use xlink:href="#DejaVuSans-6e" x="490.917969"/>
     <use xlink:href="#DejaVuSans-74" x="554.296875"/>
     <use xlink:href="#DejaVuSans-20" x="593.505859"/>
     <use xlink:href="#DejaVuSans-5b" x="625.292969"/>
     <use xlink:href="#DejaVuSans-30" x="664.306641"/>
     <use xlink:href="#DejaVuSans-2e" x="727.929688"/>
     <use xlink:href="#DejaVuSans-30" x="759.716797"/>
     <use xlink:href="#DejaVuSans-32" x="823.339844"/>
     <use xlink:href="#DejaVuSans-2c" x="886.962891"/>
     <use xlink:href="#DejaVuSans-20" x="918.75"/>
     <use xlink:href="#DejaVuSans-30" x="950.537109"/>
     <use xlink:href="#DejaVuSans-2e" x="1014.160156"/>
     <use xlink:href="#DejaVuSans-31" x="1045.947266"/>
     <use xlink:href="#DejaVuSans-30" x="1109.570312"/>
     <use xlink:href="#DejaVuSans-5d" x="1173.193359"/>
    </g>
   </g>
   <g id="legend_1">
    <g id="patch_6">
     <path d="M 512.854744 26.288203
L 535.854744 26.288203
L 535.854744 18.238203
L 512.854744 18.238203
z
" style="fill: #d62828; fill-opacity: 0.17"/>
    </g>
    <g id="text_16">
     <!-- 95% simulation interval -->
     <g transform="translate(545.054744 26.288203) scale(0.115 -0.115)">
      <defs>
       <path id="DejaVuSans-75" d="M 544 1381
L 544 3500
L 1119 3500
L 1119 1403
Q 1119 906 1312 657
Q 1506 409 1894 409
Q 2359 409 2629 706
Q 2900 1003 2900 1516
L 2900 3500
L 3475 3500
L 3475 0
L 2900 0
L 2900 538
Q 2691 219 2414 64
Q 2138 -91 1772 -91
Q 1169 -91 856 284
Q 544 659 544 1381
z
M 1991 3584
L 1991 3584
z
" transform="scale(0.015625)"/>
       <path id="DejaVuSans-6c" d="M 603 4863
L 1178 4863
L 1178 0
L 603 0
L 603 4863
z
" transform="scale(0.015625)"/>
       <path id="DejaVuSans-6f" d="M 1959 3097
Q 1497 3097 1228 2736
Q 959 2375 959 1747
Q 959 1119 1226 758
Q 1494 397 1959 397
Q 2419 397 2687 759
Q 2956 1122 2956 1747
Q 2956 2369 2687 2733
Q 2419 3097 1959 3097
z
M 1959 3584
Q 2709 3584 3137 3096
Q 3566 2609 3566 1747
Q 3566 888 3137 398
Q 2709 -91 1959 -91
Q 1206 -91 779 398
Q 353 888 353 1747
Q 353 2609 779 3096
Q 1206 3584 1959 3584
z
" transform="scale(0.015625)"/>
       <path id="DejaVuSans-72" d="M 2631 2963
Q 2534 3019 2420 3045
Q 2306 3072 2169 3072
Q 1681 3072 1420 2755
Q 1159 2438 1159 1844
L 1159 0
L 581 0
L 581 3500
L 1159 3500
L 1159 2956
Q 1341 3275 1631 3429
Q 1922 3584 2338 3584
Q 2397 3584 2469 3576
Q 2541 3569 2628 3553
L 2631 2963
z
" transform="scale(0.015625)"/>
       <path id="DejaVuSans-76" d="M 191 3500
L 800 3500
L 1894 563
L 2988 3500
L 3597 3500
L 2284 0
L 1503 0
L 191 3500
z
" transform="scale(0.015625)"/>
      </defs>
      <use xlink:href="#DejaVuSans-39"/>
      <use xlink:href="#DejaVuSans-35" x="63.623047"/>
      <use xlink:href="#DejaVuSans-25" x="127.246094"/>
      <use xlink:href="#DejaVuSans-20" x="222.265625"/>
      <use xlink:href="#DejaVuSans-73" x="254.052734"/>
      <use xlink:href="#DejaVuSans-69" x="306.152344"/>
      <use xlink:href="#DejaVuSans-6d" x="333.935547"/>
      <use xlink:href="#DejaVuSans-75" x="431.347656"/>
      <use xlink:href="#DejaVuSans-6c" x="494.726562"/>
      <use xlink:href="#DejaVuSans-61" x="522.509766"/>
      <use xlink:href="#DejaVuSans-74" x="583.789062"/>
      <use xlink:href="#DejaVuSans-69" x="622.998047"/>
      <use xlink:href="#DejaVuSans-6f" x="650.78125"/>
      <use xlink:href="#DejaVuSans-6e" x="711.962891"/>
      <use xlink:href="#DejaVuSans-20" x="775.341797"/>
      <use xlink:href="#DejaVuSans-69" x="807.128906"/>
      <use xlink:href="#DejaVuSans-6e" x="834.912109"/>
      <use xlink:href="#DejaVuSans-74" x="898.291016"/>
      <use xlink:href="#DejaVuSans-65" x="937.5"/>
      <use xlink:href="#DejaVuSans-72" x="999.023438"/>
      <use xlink:href="#DejaVuSans-76" x="1040.136719"/>
      <use xlink:href="#DejaVuSans-61" x="1099.316406"/>
      <use xlink:href="#DejaVuSans-6c" x="1160.595703"/>
     </g>
    </g>
    <g id="line2d_27">
     <path d="M 512.854744 39.143047
L 524.354744 39.143047
L 535.854744 39.143047
" style="fill: none; stroke: #d62828; stroke-width: 3; stroke-linecap: square"/>
    </g>
    <g id="text_17">
     <!-- Mean JSD under complete overlap -->
     <g transform="translate(545.054744 43.168047) scale(0.115 -0.115)">
      <defs>
       <path id="DejaVuSans-4d" d="M 628 4666
L 1569 4666
L 2759 1491
L 3956 4666
L 4897 4666
L 4897 0
L 4281 0
L 4281 4097
L 3078 897
L 2444 897
L 1241 4097
L 1241 0
L 628 0
L 628 4666
z
" transform="scale(0.015625)"/>
       <path id="DejaVuSans-4a" d="M 628 4666
L 1259 4666
L 1259 325
Q 1259 -519 939 -900
Q 619 -1281 -91 -1281
L -331 -1281
L -331 -750
L -134 -750
Q 284 -750 456 -515
Q 628 -281 628 325
L 628 4666
z
" transform="scale(0.015625)"/>
       <path id="DejaVuSans-53" d="M 3425 4513
L 3425 3897
Q 3066 4069 2747 4153
Q 2428 4238 2131 4238
Q 1616 4238 1336 4038
Q 1056 3838 1056 3469
Q 1056 3159 1242 3001
Q 1428 2844 1947 2747
L 2328 2669
Q 3034 2534 3370 2195
Q 3706 1856 3706 1288
Q 3706 609 3251 259
Q 2797 -91 1919 -91
Q 1588 -91 1214 -16
Q 841 59 441 206
L 441 856
Q 825 641 1194 531
Q 1563 422 1919 422
Q 2459 422 2753 634
Q 3047 847 3047 1241
Q 3047 1584 2836 1778
Q 2625 1972 2144 2069
L 1759 2144
Q 1053 2284 737 2584
Q 422 2884 422 3419
Q 422 4038 858 4394
Q 1294 4750 2059 4750
Q 2388 4750 2728 4690
Q 3069 4631 3425 4513
z
" transform="scale(0.015625)"/>
       <path id="DejaVuSans-44" d="M 1259 4147
L 1259 519
L 2022 519
Q 2988 519 3436 956
Q 3884 1394 3884 2338
Q 3884 3275 3436 3711
Q 2988 4147 2022 4147
L 1259 4147
z
M 628 4666
L 1925 4666
Q 3281 4666 3915 4102
Q 4550 3538 4550 2338
Q 4550 1131 3912 565
Q 3275 0 1925 0
L 628 0
L 628 4666
z
" transform="scale(0.015625)"/>
       <path id="DejaVuSans-64" d="M 2906 2969
L 2906 4863
L 3481 4863
L 3481 0
L 2906 0
L 2906 525
Q 2725 213 2448 61
Q 2172 -91 1784 -91
Q 1150 -91 751 415
Q 353 922 353 1747
Q 353 2572 751 3078
Q 1150 3584 1784 3584
Q 2172 3584 2448 3432
Q 2725 3281 2906 2969
z
M 947 1747
Q 947 1113 1208 752
Q 1469 391 1925 391
Q 2381 391 2643 752
Q 2906 1113 2906 1747
Q 2906 2381 2643 2742
Q 2381 3103 1925 3103
Q 1469 3103 1208 2742
Q 947 2381 947 1747
z
" transform="scale(0.015625)"/>
       <path id="DejaVuSans-63" d="M 3122 3366
L 3122 2828
Q 2878 2963 2633 3030
Q 2388 3097 2138 3097
Q 1578 3097 1268 2742
Q 959 2388 959 1747
Q 959 1106 1268 751
Q 1578 397 2138 397
Q 2388 397 2633 464
Q 2878 531 3122 666
L 3122 134
Q 2881 22 2623 -34
Q 2366 -91 2075 -91
Q 1284 -91 818 406
Q 353 903 353 1747
Q 353 2603 823 3093
Q 1294 3584 2113 3584
Q 2378 3584 2631 3529
Q 2884 3475 3122 3366
z
" transform="scale(0.015625)"/>
       <path id="DejaVuSans-70" d="M 1159 525
L 1159 -1331
L 581 -1331
L 581 3500
L 1159 3500
L 1159 2969
Q 1341 3281 1617 3432
Q 1894 3584 2278 3584
Q 2916 3584 3314 3078
Q 3713 2572 3713 1747
Q 3713 922 3314 415
Q 2916 -91 2278 -91
Q 1894 -91 1617 61
Q 1341 213 1159 525
z
M 3116 1747
Q 3116 2381 2855 2742
Q 2594 3103 2138 3103
Q 1681 3103 1420 2742
Q 1159 2381 1159 1747
Q 1159 1113 1420 752
Q 1681 391 2138 391
Q 2594 391 2855 752
Q 3116 1113 3116 1747
z
" transform="scale(0.015625)"/>
      </defs>
      <use xlink:href="#DejaVuSans-4d"/>
      <use xlink:href="#DejaVuSans-65" x="86.279297"/>
      <use xlink:href="#DejaVuSans-61" x="147.802734"/>
      <use xlink:href="#DejaVuSans-6e" x="209.082031"/>
      <use xlink:href="#DejaVuSans-20" x="272.460938"/>
      <use xlink:href="#DejaVuSans-4a" x="304.248047"/>
      <use xlink:href="#DejaVuSans-53" x="333.740234"/>
      <use xlink:href="#DejaVuSans-44" x="397.216797"/>
      <use xlink:href="#DejaVuSans-20" x="474.21875"/>
      <use xlink:href="#DejaVuSans-75" x="506.005859"/>
      <use xlink:href="#DejaVuSans-6e" x="569.384766"/>
      <use xlink:href="#DejaVuSans-64" x="632.763672"/>
      <use xlink:href="#DejaVuSans-65" x="696.240234"/>
      <use xlink:href="#DejaVuSans-72" x="757.763672"/>
      <use xlink:href="#DejaVuSans-20" x="798.876953"/>
      <use xlink:href="#DejaVuSans-63" x="830.664062"/>
      <use xlink:href="#DejaVuSans-6f" x="885.644531"/>
      <use xlink:href="#DejaVuSans-6d" x="946.826172"/>
      <use xlink:href="#DejaVuSans-70" x="1044.238281"/>
      <use xlink:href="#DejaVuSans-6c" x="1107.714844"/>
      <use xlink:href="#DejaVuSans-65" x="1135.498047"/>
      <use xlink:href="#DejaVuSans-74" x="1197.021484"/>
      <use xlink:href="#DejaVuSans-65" x="1236.230469"/>
      <use xlink:href="#DejaVuSans-20" x="1297.753906"/>
      <use xlink:href="#DejaVuSans-6f" x="1329.541016"/>
      <use xlink:href="#DejaVuSans-76" x="1390.722656"/>
      <use xlink:href="#DejaVuSans-65" x="1449.902344"/>
      <use xlink:href="#DejaVuSans-72" x="1511.425781"/>
      <use xlink:href="#DejaVuSans-6c" x="1552.539062"/>
      <use xlink:href="#DejaVuSans-61" x="1580.322266"/>
      <use xlink:href="#DejaVuSans-70" x="1641.601562"/>
     </g>
    </g>
   </g>
  </g>
 </g>
 <defs>
  <clipPath id="p1d629d93c0">
   <rect x="51.800938" y="7.2" width="699.693182" height="358.163636"/>
  </clipPath>
 </defs>
</svg>
